STARTFONT 2.1
COMMENT
COMMENT Converted from OpenType font "Seven Segment.ttf" by "otf2bdf 3.0".
COMMENT
FONT -FreeType-Seven Segment-Medium-R-Normal--60-600-72-72-P-196-ISO10646-1
SIZE 60 72 72
FONTBOUNDINGBOX 138 60 0 -8
STARTPROPERTIES 19
FOUNDRY "FreeType"
FAMILY_NAME "Seven Segment"
WEIGHT_NAME "Medium"
SLANT "R"
SETWIDTH_NAME "Normal"
ADD_STYLE_NAME ""
PIXEL_SIZE 60
POINT_SIZE 600
RESOLUTION_X 72
RESOLUTION_Y 72
SPACING "P"
AVERAGE_WIDTH 196
CHARSET_REGISTRY "ISO10646"
CHARSET_ENCODING "1"
FONT_ASCENT 51
FONT_DESCENT 10
COPYRIGHT "-FreeType-Seven Segment-Medium-R-Normal--60-600-72-72-P-196-ISO10646-1"
_OTF_FONTFILE "Seven Segment.ttf"
_OTF_PSNAME "SevenSegmentRegular"
ENDPROPERTIES
CHARS 164
STARTCHAR 0000
ENCODING 0
SWIDTH 0 0
DWIDTH 0 0
BBX 0 0 0 0
BITMAP
ENDCHAR
STARTCHAR 000A
ENCODING 10
SWIDTH 483 0
DWIDTH 29 0
BBX 0 0 0 0
BITMAP
ENDCHAR
STARTCHAR 000D
ENCODING 13
SWIDTH 483 0
DWIDTH 29 0
BBX 0 0 0 0
BITMAP
ENDCHAR
STARTCHAR 0020
ENCODING 32
SWIDTH 300 0
DWIDTH 18 0
BBX 0 0 0 0
BITMAP
ENDCHAR
STARTCHAR 0021
ENCODING 33
SWIDTH 183 0
DWIDTH 11 0
BBX 4 42 4 0
BITMAP
40
E0
F0
F0
F0
F0
F0
F0
F0
F0
F0
F0
F0
F0
F0
F0
F0
F0
F0
F0
F0
F0
F0
F0
F0
F0
F0
F0
F0
F0
F0
F0
F0
60
00
00
00
60
F0
F0
E0
40
ENDCHAR
STARTCHAR 0022
ENCODING 34
SWIDTH 283 0
DWIDTH 17 0
BBX 10 5 4 37
BITMAP
6180
F3C0
F3C0
E380
4100
ENDCHAR
STARTCHAR 0023
ENCODING 35
SWIDTH 550 0
DWIDTH 33 0
BBX 25 28 4 -1
BITMAP
00040800
001C1C00
001E3C00
003E3C00
003C3C00
003C7800
00787800
0078F800
7FFFFF00
FFFFFF80
FFFFFF80
7FFFFF00
01E1E000
01E3C000
03C3C000
03C3C000
7FFFFF00
FFFFFF80
FFFFFF80
7FFFFF00
0F0F0000
0F1E0000
1F1E0000
1E1E0000
1E3C0000
3C3C0000
1C3C0000
18100000
ENDCHAR
STARTCHAR 0024
ENCODING 36
SWIDTH 500 0
DWIDTH 30 0
BBX 22 52 4 -5
BITMAP
003000
007800
007800
007800
007800
0FFFC0
1FFFE0
1FFFE0
6FFFC0
F00000
F00000
F00000
F00000
F00000
F00000
F00000
F00000
F00000
F00000
F00000
F00000
F00000
F00000
F00000
6FFFC0
1FFFE0
1FFFE0
0FFFC8
00001C
00003C
00003C
00003C
00003C
00003C
00003C
00003C
00003C
00003C
00003C
00003C
00003C
00003C
00001C
0FFFC8
1FFFE0
1FFFE0
0FFFC0
007800
007800
007800
007800
003000
ENDCHAR
STARTCHAR 0025
ENCODING 37
SWIDTH 716 0
DWIDTH 43 0
BBX 35 41 4 0
BITMAP
0000001C00
0000003C00
0000003C00
0000007C00
0000007800
000000F800
3FC001F000
3FC001E000
C03003E000
C03003C000
C03007C000
C0300F8000
C0300F0000
C0301F0000
C0301E0000
C0303E0000
C0303C0000
C030780000
3FC0F80000
3FC0F00000
0001F00000
0001E07F80
0003E07F80
0007C18060
0007818060
000F818060
000F018060
001F018060
001E018060
003C018060
007C018060
0078018060
00F8018060
00F0007F80
01F0007F80
03E0000000
03C0000000
07C0000000
0780000000
0780000000
0700000000
ENDCHAR
STARTCHAR 0026
ENCODING 38
SWIDTH 2366 0
DWIDTH 142 0
BBX 134 42 4 0
BITMAP
0FFFE00000000000000000000000000000
1FFFF00000000000000000000000000000
1FFFF00000000000000000000000000000
6FFFE00000000000000000000000000000
F000000000000000000000000000000000
F000000000000000000000000000000000
F000000000000000000000000000000000
F000000000000000000000000000000000
F000000000000000000000000000000000
F000000000000000000000000000000000
F000000000000000000000000000000000
F000000000000000000000000000000000
F000000000000000000000000000000000
F000000000000000000000000000000000
F000000000000000000000000000000000
F000000000000000000000000000000000
F000000000000000000000000000000000
F000000000000000000000000000000000
E000000000000000000000000000000000
4FFFE000FFFE000FFFE000FFFE0003FFF8
1FFFF001FFFF001FFFF001FFFF0007FFFC
1FFFF001FFFF001FFFF001FFFE0003FFFC
6FFFE006FFFC006FFFE006FFFCC019FFF8
F000000F000000F000000F0001E03C0000
F000000F000000F000000F0001E03C0000
F000000F000000F000000F0001E03C0000
F000000F000000F000000F0001E03C0000
F000000F000000F000000F0001E03C0000
F000000F000000F000000F0001E03C0000
F000000F000000F000000F0001E03C0000
F000000F000000F000000F0001E03C0000
F000000F000000F000000F0001E03C0000
F000000F000000F000000F0001E03C0000
F000000F000000F000000F0001E03C0000
F000000F000000F000000F0001E03C0000
F000000F000000F000000F0001E03C0000
F000000F000000F000000F0001E03C0000
F000000F000000F000000F0001E03C0000
6FFFE00F000000F0000006FFFCC03C0000
1FFFF00F000000F0000001FFFE003C0000
1FFFF00E000000E0000001FFFF001C0000
0FFFE00400000040000000FFFE00080000
ENDCHAR
STARTCHAR 0028
ENCODING 40
SWIDTH 383 0
DWIDTH 23 0
BBX 15 42 4 0
BITMAP
0FFC
1FFE
1FFE
6FFC
F000
F000
F000
F000
F000
F000
F000
F000
F000
F000
F000
F000
F000
F000
E000
4000
0000
0000
4000
E000
F000
F000
F000
F000
F000
F000
F000
F000
F000
F000
F000
F000
F000
F000
6FFC
1FFE
1FFE
0FFC
ENDCHAR
STARTCHAR 0029
ENCODING 41
SWIDTH 366 0
DWIDTH 22 0
BBX 15 42 4 0
BITMAP
7FE0
FFF0
FFE0
7FCC
001E
001E
001E
001E
001E
001E
001E
001E
001E
001E
001E
001E
001E
001E
001C
0008
0000
0000
0008
001C
001E
001E
001E
001E
001E
001E
001E
001E
001E
001E
001E
001E
001E
001E
7FCC
FFE0
FFF0
7FE0
ENDCHAR
STARTCHAR 002A
ENCODING 42
SWIDTH 400 0
DWIDTH 24 0
BBX 18 20 3 30
BITMAP
00C000
01E000
01E000
01E000
61E380
F9E7C0
7FFF80
7FFF80
1FFE00
0FF800
0FFC00
3FFF00
7FFF80
FDFF80
F9E7C0
21E100
01E000
01E000
01C000
008000
ENDCHAR
STARTCHAR 002B
ENCODING 43
SWIDTH 666 0
DWIDTH 40 0
BBX 32 32 4 3
BITMAP
00018000
0003C000
0003C000
0003C000
0003C000
0003C000
0003C000
0003C000
0003C000
0003C000
0003C000
0003C000
0003C000
0003C000
7FF99FFE
FFFC3FFF
FFFE7FFF
7FFC3FFE
00018000
0003C000
0003C000
0003C000
0003C000
0003C000
0003C000
0003C000
0003C000
0003C000
0003C000
0003C000
0003C000
00018000
ENDCHAR
STARTCHAR 002C
ENCODING 44
SWIDTH 233 0
DWIDTH 14 0
BBX 7 7 4 0
BITMAP
0E
1E
3E
7C
F8
F0
E0
ENDCHAR
STARTCHAR 002D
ENCODING 45
SWIDTH 400 0
DWIDTH 24 0
BBX 16 4 4 19
BITMAP
7FFE
FFFF
FFFF
7FFE
ENDCHAR
STARTCHAR 002E
ENCODING 46
SWIDTH 183 0
DWIDTH 11 0
BBX 4 5 4 1
BITMAP
60
F0
F0
E0
40
ENDCHAR
STARTCHAR 002F
ENCODING 47
SWIDTH 550 0
DWIDTH 33 0
BBX 25 41 4 1
BITMAP
00000700
00000780
00000F80
00000F00
00001F00
00001E00
00003C00
00007C00
00007800
0000F800
0000F000
0001F000
0001E000
0003C000
0007C000
00078000
000F8000
000F0000
000F0000
00000000
00000000
00300000
00700000
00F00000
00F00000
01E00000
03E00000
03C00000
07C00000
07800000
0F800000
0F000000
1E000000
3E000000
3C000000
7C000000
78000000
F8000000
F0000000
E0000000
C0000000
ENDCHAR
STARTCHAR 0030
ENCODING 48
SWIDTH 516 0
DWIDTH 31 0
BBX 23 42 4 0
BITMAP
0FFFE0
1FFFF0
1FFFF0
6FFFEC
F0001E
F0001E
F0001E
F0001E
F0001E
F0001E
F0001E
F0001E
F0001E
F0001E
F0001E
F0001E
F0001E
F0001E
E0000E
400004
000000
000000
400004
E0000E
F0001E
F0001E
F0001E
F0001E
F0001E
F0001E
F0001E
F0001E
F0001E
F0001E
F0001E
F0001E
F0001E
F0001E
6FFFEC
1FFFF0
1FFFF0
0FFFE0
ENDCHAR
STARTCHAR 0031
ENCODING 49
SWIDTH 183 0
DWIDTH 11 0
BBX 4 42 4 1
BITMAP
40
E0
F0
F0
F0
F0
F0
F0
F0
F0
F0
F0
F0
F0
F0
F0
F0
F0
60
00
00
00
60
F0
F0
F0
F0
F0
F0
F0
F0
F0
F0
F0
F0
F0
F0
F0
F0
F0
E0
40
ENDCHAR
STARTCHAR 0032
ENCODING 50
SWIDTH 516 0
DWIDTH 31 0
BBX 23 42 4 0
BITMAP
0FFFE0
1FFFF0
1FFFF0
0FFFEC
00001E
00001E
00001E
00001E
00001E
00001E
00001E
00001E
00001E
00001E
00001E
00001E
00001E
00001E
00000E
0FFFE4
1FFFF0
1FFFF0
6FFFE0
F00000
F00000
F00000
F00000
F00000
F00000
F00000
F00000
F00000
F00000
F00000
F00000
F00000
F00000
F00000
6FFFE0
1FFFF0
1FFFF0
0FFFE0
ENDCHAR
STARTCHAR 0033
ENCODING 51
SWIDTH 450 0
DWIDTH 27 0
BBX 20 42 4 0
BITMAP
7FFF00
FFFF80
FFFF00
7FFE60
0000F0
0000F0
0000F0
0000F0
0000F0
0000F0
0000F0
0000F0
0000F0
0000F0
0000F0
0000F0
0000F0
0000F0
0000E0
7FFF40
FFFF80
FFFF00
7FFE60
0000F0
0000F0
0000F0
0000F0
0000F0
0000F0
0000F0
0000F0
0000F0
0000F0
0000F0
0000F0
0000F0
0000F0
0000F0
7FFE60
FFFF00
FFFF80
7FFF00
ENDCHAR
STARTCHAR 0034
ENCODING 52
SWIDTH 516 0
DWIDTH 31 0
BBX 23 42 4 -1
BITMAP
400004
E0000E
F0001E
F0001E
F0001E
F0001E
F0001E
F0001E
F0001E
F0001E
F0001E
F0001E
F0001E
F0001E
F0001E
F0001E
F0001E
F0001E
F0001E
6FFFEC
1FFFF0
1FFFF0
0FFFE4
00000E
00001E
00001E
00001E
00001E
00001E
00001E
00001E
00001E
00001E
00001E
00001E
00001E
00001E
00001E
00001E
00001E
00001E
00000C
ENDCHAR
STARTCHAR 0035
ENCODING 53
SWIDTH 516 0
DWIDTH 31 0
BBX 23 42 4 0
BITMAP
0FFFE0
1FFFF0
1FFFF0
6FFFE0
F00000
F00000
F00000
F00000
F00000
F00000
F00000
F00000
F00000
F00000
F00000
F00000
F00000
F00000
E00000
4FFFE0
1FFFF0
1FFFF0
0FFFEC
00001E
00001E
00001E
00001E
00001E
00001E
00001E
00001E
00001E
00001E
00001E
00001E
00001E
00001E
00001E
0FFFEC
1FFFF0
1FFFF0
0FFFE0
ENDCHAR
STARTCHAR 0036
ENCODING 54
SWIDTH 516 0
DWIDTH 31 0
BBX 23 42 4 0
BITMAP
0FFFE0
1FFFF0
1FFFF0
6FFFE0
F00000
F00000
F00000
F00000
F00000
F00000
F00000
F00000
F00000
F00000
F00000
F00000
F00000
F00000
E00000
4FFFE0
1FFFF0
1FFFF0
6FFFEC
F0001E
F0001E
F0001E
F0001E
F0001E
F0001E
F0001E
F0001E
F0001E
F0001E
F0001E
F0001E
F0001E
F0001E
F0001E
6FFFEC
1FFFF0
1FFFF0
0FFFE0
ENDCHAR
STARTCHAR 0037
ENCODING 55
SWIDTH 450 0
DWIDTH 27 0
BBX 20 42 4 -1
BITMAP
7FFF00
FFFF80
FFFF00
7FFE60
0000F0
0000F0
0000F0
0000F0
0000F0
0000F0
0000F0
0000F0
0000F0
0000F0
0000F0
0000F0
0000F0
0000F0
0000E0
000040
000000
000000
000040
0000E0
0000F0
0000F0
0000F0
0000F0
0000F0
0000F0
0000F0
0000F0
0000F0
0000F0
0000F0
0000F0
0000F0
0000F0
0000F0
0000F0
0000E0
000040
ENDCHAR
STARTCHAR 0038
ENCODING 56
SWIDTH 516 0
DWIDTH 31 0
BBX 23 42 4 0
BITMAP
0FFFE0
1FFFF0
1FFFF0
6FFFEC
F0001E
F0001E
F0001E
F0001E
F0001E
F0001E
F0001E
F0001E
F0001E
F0001E
F0001E
F0001E
F0001E
F0001E
E0000E
4FFFE4
1FFFF0
1FFFF0
6FFFEC
F0001E
F0001E
F0001E
F0001E
F0001E
F0001E
F0001E
F0001E
F0001E
F0001E
F0001E
F0001E
F0001E
F0001E
F0001E
6FFFEC
1FFFF0
1FFFF0
0FFFE0
ENDCHAR
STARTCHAR 0039
ENCODING 57
SWIDTH 516 0
DWIDTH 31 0
BBX 23 42 4 0
BITMAP
0FFFE0
1FFFF0
1FFFF0
6FFFEC
F0001E
F0001E
F0001E
F0001E
F0001E
F0001E
F0001E
F0001E
F0001E
F0001E
F0001E
F0001E
F0001E
F0001E
E0000E
4FFFE4
1FFFF0
1FFFF0
0FFFEC
00001E
00001E
00001E
00001E
00001E
00001E
00001E
00001E
00001E
00001E
00001E
00001E
00001E
00001E
00001E
0FFFEC
1FFFF0
1FFFF0
0FFFE0
ENDCHAR
STARTCHAR 003A
ENCODING 58
SWIDTH 183 0
DWIDTH 11 0
BBX 4 17 4 1
BITMAP
60
F0
F0
F0
60
00
00
00
00
00
00
00
60
F0
F0
E0
40
ENDCHAR
STARTCHAR 003C
ENCODING 60
SWIDTH 283 0
DWIDTH 17 0
BBX 10 42 4 1
BITMAP
0180
0380
03C0
0780
0780
0F80
0F00
0F00
1E00
1E00
3E00
3C00
3C00
7800
7800
F800
F000
F000
E000
C000
0000
0000
E000
E000
F000
F000
7800
7800
7800
3C00
3C00
1E00
1E00
1E00
0F00
0F00
0F80
0780
0780
03C0
0380
0080
ENDCHAR
STARTCHAR 003D
ENCODING 61
SWIDTH 550 0
DWIDTH 33 0
BBX 25 14 4 9
BITMAP
7FFFFF00
FFFFFF80
FFFFFF80
7FFFFF00
00000000
00000000
00000000
00000000
00000000
00000000
7FFFFF00
FFFFFF80
FFFFFF80
7FFFFF00
ENDCHAR
STARTCHAR 003E
ENCODING 62
SWIDTH 283 0
DWIDTH 17 0
BBX 10 42 4 1
BITMAP
C000
E000
F000
F000
F800
7800
7800
3C00
3C00
3C00
1E00
1E00
0F00
0F00
0F00
0780
0780
03C0
0380
0180
0000
0000
0180
0380
03C0
0780
0780
0F00
0F00
0F00
1E00
1E00
3C00
3C00
3C00
7800
7800
F800
F000
F000
E000
C000
ENDCHAR
STARTCHAR 003F
ENCODING 63
SWIDTH 516 0
DWIDTH 31 0
BBX 23 42 4 0
BITMAP
0FFFE0
1FFFF0
1FFFF0
0FFFEC
00001E
00001E
00001E
00001E
00001E
00001E
00001E
00001E
00001E
00001E
00001E
00001E
00001E
00001E
00000E
0FFFE4
1FFFF0
1FFFF0
6FFFE0
F00000
F00000
F00000
F00000
F00000
F00000
F00000
F00000
F00000
F00000
600000
000000
000000
400000
600000
F00000
F00000
E00000
400000
ENDCHAR
STARTCHAR 0040
ENCODING 64
SWIDTH 516 0
DWIDTH 31 0
BBX 23 42 4 0
BITMAP
0FFFE0
1FFFF0
1FFFF0
6FFFEC
F0001E
F0001E
F0001E
F0001E
F0001E
F0001E
F01FFE
F03FFE
F03FFE
F09FFE
F1C01E
F1E01E
F1E01E
F1E01E
F1E01E
61E00C
01E000
01E000
01E000
61E00C
F1E01E
F1E01E
F1E01E
F1E01E
F1C00C
F09FE0
F03FF0
F03FF0
F01FE0
F00000
F00000
F00000
F00000
F00000
6FFFE0
1FFFF0
1FFFF0
0FFFE0
ENDCHAR
STARTCHAR 0041
ENCODING 65
SWIDTH 516 0
DWIDTH 31 0
BBX 23 42 4 0
BITMAP
0FFFE0
1FFFF0
1FFFF0
6FFFEC
F0001E
F0001E
F0001E
F0001E
F0001E
F0001E
F0001E
F0001E
F0001E
F0001E
F0001E
F0001E
F0001E
F0001E
E0000E
4FFFE4
1FFFF0
1FFFF0
6FFFEC
F0001E
F0001E
F0001E
F0001E
F0001E
F0001E
F0001E
F0001E
F0001E
F0001E
F0001E
F0001E
F0001E
F0001E
F0001E
F0001E
F0001E
E0000E
400004
ENDCHAR
STARTCHAR 0042
ENCODING 66
SWIDTH 516 0
DWIDTH 31 0
BBX 23 42 4 0
BITMAP
7FFFE0
BFFFF0
DFFFF0
EFFFEC
F0001E
F0001E
F0001E
F0001E
F0001E
F0001E
F0001E
F0001E
F0001E
F0001E
F0001E
F0001E
F0001E
F0001E
F0001E
6FFFEC
1FFFF0
1FFFF0
4FFFE4
E0000E
F0001E
F0001E
F0001E
F0001E
F0001E
F0001E
F0001E
F0001E
F0001E
F0001E
F0001E
F0001E
F0001E
F0001E
EFFFEC
DFFFF0
BFFFF0
7FFFE0
ENDCHAR
STARTCHAR 0043
ENCODING 67
SWIDTH 466 0
DWIDTH 28 0
BBX 20 42 4 0
BITMAP
0FFFE0
1FFFF0
1FFFE0
6FFFC0
F00000
F00000
F00000
F00000
F00000
F00000
F00000
F00000
F00000
F00000
F00000
F00000
F00000
F00000
E00000
400000
000000
000000
400000
E00000
F00000
F00000
F00000
F00000
F00000
F00000
F00000
F00000
F00000
F00000
F00000
F00000
F00000
F00000
6FFFC0
1FFFE0
1FFFF0
0FFFE0
ENDCHAR
STARTCHAR 0044
ENCODING 68
SWIDTH 516 0
DWIDTH 31 0
BBX 23 42 4 0
BITMAP
7FFFE0
BFFFF0
DFFFF0
EFFFEC
F0001E
F0001E
F0001E
F0001E
F0001E
F0001E
F0001E
F0001E
F0001E
F0001E
F0001E
F0001E
F0001E
F0001E
E0000E
400004
000000
000000
400004
E0000E
F0001E
F0001E
F0001E
F0001E
F0001E
F0001E
F0001E
F0001E
F0001E
F0001E
F0001E
F0001E
F0001E
F0001E
EFFFEC
DFFFF0
BFFFF0
7FFFE0
ENDCHAR
STARTCHAR 0045
ENCODING 69
SWIDTH 466 0
DWIDTH 28 0
BBX 20 42 4 0
BITMAP
0FFFE0
1FFFF0
1FFFE0
6FFFC0
F00000
F00000
F00000
F00000
F00000
F00000
F00000
F00000
F00000
F00000
F00000
F00000
F00000
F00000
E00000
4FFFE0
1FFFF0
1FFFE0
6FFFC0
F00000
F00000
F00000
F00000
F00000
F00000
F00000
F00000
F00000
F00000
F00000
F00000
F00000
F00000
F00000
6FFFC0
1FFFE0
1FFFF0
0FFFE0
ENDCHAR
STARTCHAR 0046
ENCODING 70
SWIDTH 466 0
DWIDTH 28 0
BBX 20 42 4 0
BITMAP
0FFFE0
1FFFF0
1FFFE0
6FFFC0
F00000
F00000
F00000
F00000
F00000
F00000
F00000
F00000
F00000
F00000
F00000
F00000
F00000
F00000
E00000
4FFFE0
1FFFF0
1FFFE0
6FFFC0
F00000
F00000
F00000
F00000
F00000
F00000
F00000
F00000
F00000
F00000
F00000
F00000
F00000
F00000
F00000
F00000
F00000
E00000
400000
ENDCHAR
STARTCHAR 0047
ENCODING 71
SWIDTH 516 0
DWIDTH 31 0
BBX 23 42 4 0
BITMAP
0FFFE0
1FFFF0
1FFFF0
6FFFE0
F00000
F00000
F00000
F00000
F00000
F00000
F00000
F00000
F00000
F00000
F00000
F00000
F00000
F00000
E00000
407FE0
00FFF0
00FFF0
607FEC
F0001E
F0001E
F0001E
F0001E
F0001E
F0001E
F0001E
F0001E
F0001E
F0001E
F0001E
F0001E
F0001E
F0001E
F0001E
6FFFEC
1FFFF0
1FFFF0
0FFFE0
ENDCHAR
STARTCHAR 0048
ENCODING 72
SWIDTH 516 0
DWIDTH 31 0
BBX 23 41 4 0
BITMAP
60000C
F0001E
F0001E
F0001E
F0001E
F0001E
F0001E
F0001E
F0001E
F0001E
F0001E
F0001E
F0001E
F0001E
F0001E
F0001E
F0001E
F0001E
6FFFEC
1FFFF0
1FFFF0
4FFFE4
E0000E
F0001E
F0001E
F0001E
F0001E
F0001E
F0001E
F0001E
F0001E
F0001E
F0001E
F0001E
F0001E
F0001E
F0001E
F0001E
F0001E
F0001E
60000C
ENDCHAR
STARTCHAR 0049
ENCODING 73
SWIDTH 183 0
DWIDTH 11 0
BBX 4 42 4 0
BITMAP
40
E0
F0
F0
F0
F0
F0
F0
F0
F0
F0
F0
F0
F0
F0
F0
F0
F0
E0
40
00
00
40
E0
F0
F0
F0
F0
F0
F0
F0
F0
F0
F0
F0
F0
F0
F0
F0
F0
E0
40
ENDCHAR
STARTCHAR 004A
ENCODING 74
SWIDTH 516 0
DWIDTH 31 0
BBX 23 42 4 0
BITMAP
000004
00000E
00001E
00001E
00001E
00001E
00001E
00001E
00001E
00001E
00001E
00001E
00001E
00001E
00001E
00001E
00001E
00001E
00000E
000004
000000
000000
400004
E0000E
F0001E
F0001E
F0001E
F0001E
F0001E
F0001E
F0001E
F0001E
F0001E
F0001E
F0001E
F0001E
F0001E
F0001E
6FFFEC
1FFFF0
1FFFF0
0FFFE0
ENDCHAR
STARTCHAR 004B
ENCODING 75
SWIDTH 500 0
DWIDTH 30 0
BBX 23 42 4 -1
BITMAP
40000E
E0001E
F0003E
F0007C
F000F8
F001F0
F003E0
F007C0
F00F80
F01F00
F03E00
F07C00
F0F800
F1F000
F3E000
F7C000
F78000
F70000
F00000
6FFFC0
1FFFE0
1FFFF0
4FFFE8
E0001C
F0001E
F0001E
F0001E
F0001E
F0001E
F0001E
F0001E
F0001E
F0001E
F0001E
F0001E
F0001E
F0001E
F0001E
F0001E
F0001E
E0001C
400008
ENDCHAR
STARTCHAR 004C
ENCODING 76
SWIDTH 466 0
DWIDTH 28 0
BBX 20 42 4 0
BITMAP
400000
E00000
F00000
F00000
F00000
F00000
F00000
F00000
F00000
F00000
F00000
F00000
F00000
F00000
F00000
F00000
F00000
F00000
E00000
400000
000000
000000
400000
E00000
F00000
F00000
F00000
F00000
F00000
F00000
F00000
F00000
F00000
F00000
F00000
F00000
F00000
F00000
6FFFC0
1FFFE0
1FFFF0
0FFFE0
ENDCHAR
STARTCHAR 004D
ENCODING 77
SWIDTH 683 0
DWIDTH 41 0
BBX 34 42 4 0
BITMAP
0FFE1FFC00
1FFF3FFE00
1FFE3FFC00
6FFCDFF980
F001E003C0
F001E003C0
F001E003C0
F001E003C0
F001E003C0
F001E003C0
F001E003C0
F001E003C0
F001E003C0
F001E003C0
F001E003C0
F001E003C0
F001E003C0
F001E003C0
E001C00380
4000800100
0000000000
0000000000
4000000100
E000000380
F0000003C0
F0000003C0
F0000003C0
F0000003C0
F0000003C0
F0000003C0
F0000003C0
F0000003C0
F0000003C0
F0000003C0
F0000003C0
F0000003C0
F0000003C0
F0000003C0
F0000003C0
F0000003C0
E000000380
4000000100
ENDCHAR
STARTCHAR 004E
ENCODING 78
SWIDTH 516 0
DWIDTH 31 0
BBX 23 42 4 0
BITMAP
0FFFE0
1FFFF0
1FFFF0
6FFFEC
F0001E
F0001E
F0001E
F0001E
F0001E
F0001E
F0001E
F0001E
F0001E
F0001E
F0001E
F0001E
F0001E
F0001E
E0000E
400004
000000
000000
400004
E0000E
F0001E
F0001E
F0001E
F0001E
F0001E
F0001E
F0001E
F0001E
F0001E
F0001E
F0001E
F0001E
F0001E
F0001E
F0001E
F0001E
E0000E
400004
ENDCHAR
STARTCHAR 004F
ENCODING 79
SWIDTH 516 0
DWIDTH 31 0
BBX 23 42 4 0
BITMAP
0FFFE0
1FFFF0
1FFFF0
6FFFEC
F0001E
F0001E
F0001E
F0001E
F0001E
F0001E
F0001E
F0001E
F0001E
F0001E
F0001E
F0001E
F0001E
F0001E
E0000E
400004
000000
000000
400004
E0000E
F0001E
F0001E
F0001E
F0001E
F0001E
F0001E
F0001E
F0001E
F0001E
F0001E
F0001E
F0001E
F0001E
F0001E
6FFFEC
1FFFF0
1FFFF0
0FFFE0
ENDCHAR
STARTCHAR 0050
ENCODING 80
SWIDTH 516 0
DWIDTH 31 0
BBX 23 42 4 0
BITMAP
0FFFE0
1FFFF0
1FFFF0
6FFFEC
F0001E
F0001E
F0001E
F0001E
F0001E
F0001E
F0001E
F0001E
F0001E
F0001E
F0001E
F0001E
F0001E
F0001E
E0000E
4FFFE4
1FFFF0
1FFFF0
6FFFE0
F00000
F00000
F00000
F00000
F00000
F00000
F00000
F00000
F00000
F00000
F00000
F00000
F00000
F00000
F00000
F00000
F00000
E00000
400000
ENDCHAR
STARTCHAR 0051
ENCODING 81
SWIDTH 516 0
DWIDTH 31 0
BBX 23 42 4 0
BITMAP
0FFFE0
1FFFF0
1FFFF0
6FFFEC
F0001E
F0001E
F0001E
F0001E
F0001E
F0001E
F0001E
F0001E
F0001E
F0001E
F0001E
F0001E
F0001E
F0001E
E0000E
400004
000000
000000
400004
E0000E
F0001E
F0001E
F0001E
F0001E
F0001E
F0001E
F0001E
F0001E
F0001E
F0000E
F000E4
F000F0
F000F8
F0007C
6FFFBE
1FFFDE
1FFFCE
0FFF80
ENDCHAR
STARTCHAR 0052
ENCODING 82
SWIDTH 516 0
DWIDTH 31 0
BBX 23 42 4 -1
BITMAP
0FFFE0
1FFFF0
1FFFF0
6FFFEC
F0001E
F0001E
F0001E
F0001E
F0001E
F0001E
F0001E
F0001E
F0001E
F0001E
F0001E
F0001E
F0001E
F0001E
F0001E
6FFFEC
1FFFF0
1FFFF0
4FFFE0
E00000
F00000
F78000
F7C000
F3E000
F1F000
F0F800
F07C00
F03E00
F01F00
F00F80
F007C0
F003E0
F001F0
F000F8
F0007C
F0003E
E0001E
40000E
ENDCHAR
STARTCHAR 0053
ENCODING 83
SWIDTH 516 0
DWIDTH 31 0
BBX 23 42 4 0
BITMAP
0FFFE0
1FFFF0
1FFFF0
6FFFE0
F00000
F00000
F00000
F00000
F00000
F00000
F00000
F00000
F00000
F00000
F00000
F00000
F00000
F00000
E00000
4FFFE0
1FFFF0
1FFFF0
0FFFEC
00001E
00001E
00001E
00001E
00001E
00001E
00001E
00001E
00001E
00001E
00001E
00001E
00001E
00001E
00001E
0FFFEC
1FFFF0
1FFFF0
0FFFE0
ENDCHAR
STARTCHAR 0054
ENCODING 84
SWIDTH 583 0
DWIDTH 35 0
BBX 27 42 4 0
BITMAP
7FF0FFC0
FFF9FFE0
7FF1FFE0
3FE6FFC0
000F0000
000F0000
000F0000
000F0000
000F0000
000F0000
000F0000
000F0000
000F0000
000F0000
000F0000
000F0000
000F0000
000F0000
000E0000
00040000
00000000
00000000
00040000
000E0000
000F0000
000F0000
000F0000
000F0000
000F0000
000F0000
000F0000
000F0000
000F0000
000F0000
000F0000
000F0000
000F0000
000F0000
000F0000
000F0000
000E0000
00040000
ENDCHAR
STARTCHAR 0055
ENCODING 85
SWIDTH 516 0
DWIDTH 31 0
BBX 23 42 4 0
BITMAP
400004
E0000E
F0001E
F0001E
F0001E
F0001E
F0001E
F0001E
F0001E
F0001E
F0001E
F0001E
F0001E
F0001E
F0001E
F0001E
F0001E
F0001E
E0000E
400004
000000
000000
400004
E0000E
F0001E
F0001E
F0001E
F0001E
F0001E
F0001E
F0001E
F0001E
F0001E
F0001E
F0001E
F0001E
F0001E
F0001E
6FFFEC
1FFFF0
1FFFF0
0FFFE0
ENDCHAR
STARTCHAR 0056
ENCODING 86
SWIDTH 516 0
DWIDTH 31 0
BBX 23 42 4 0
BITMAP
400004
E0000E
F0001E
F0001E
F0001E
F0001E
F0001E
F0001E
F0001E
F0001E
F0001E
F0001E
F0001E
F0001E
F0001E
F0001E
F0001E
F0001E
E0000E
400004
000000
000000
60000C
F0001E
F0001E
78003C
78003C
78003C
3C0078
3C0078
1E00F8
1E00F0
1E00F0
0F01E0
0F01E0
0F83E0
0783C0
0783C0
03C780
03C780
03C780
008200
ENDCHAR
STARTCHAR 0057
ENCODING 87
SWIDTH 683 0
DWIDTH 41 0
BBX 34 42 4 0
BITMAP
4000000100
E000000380
F0000003C0
F0000003C0
F0000003C0
F0000003C0
F0000003C0
F0000003C0
F0000003C0
F0000003C0
F0000003C0
F0000003C0
F0000003C0
F0000003C0
F0000003C0
F0000003C0
F0000003C0
F0000003C0
E000000380
4000000100
0000000000
0000000000
6000C00180
F001E003C0
F001E003C0
F001E003C0
F001E003C0
F001E003C0
F001E003C0
F001E003C0
F001E003C0
F001E003C0
F001E003C0
F001E003C0
F001E003C0
F001E003C0
F001E003C0
F001E003C0
6FFCDFF980
1FFE3FFC00
1FFF3FFE00
0FFE1FFC00
ENDCHAR
STARTCHAR 0058
ENCODING 88
SWIDTH 500 0
DWIDTH 30 0
BBX 23 42 4 1
BITMAP
C0000C
E0001C
F0003E
F0003C
F8003C
780078
780078
3C00F8
3C00F0
3C00F0
1E01E0
1E01E0
0F03E0
0F03C0
0F03C0
078780
078780
03CF80
038700
018600
000000
000000
018600
038700
03CF80
078780
078780
0F03C0
0F03C0
0F03E0
1E01E0
1E01E0
3C00F0
3C00F0
3C00F8
780078
780078
F8003C
F0003C
F0003E
E0001C
C0000C
ENDCHAR
STARTCHAR 0059
ENCODING 89
SWIDTH 516 0
DWIDTH 31 0
BBX 23 42 4 1
BITMAP
60000C
F0001E
F0001E
F0001E
F0001E
F0001E
F0001E
F0001E
F0001E
F0001E
F0001E
F0001E
F0001E
F0001E
F0001E
F0001E
F0001E
F0001E
E0000E
4FFFE4
1FFFF0
1FFFF0
0FFFEC
00001E
00001E
00001E
00001E
00001E
00001E
00001E
00001E
00001E
00001E
00001E
00001E
00001E
00001E
00001E
0FFFEC
1FFFF0
1FFFF0
0FFFE0
ENDCHAR
STARTCHAR 005A
ENCODING 90
SWIDTH 500 0
DWIDTH 30 0
BBX 22 42 4 0
BITMAP
7FFFC0
FFFFE0
FFFFC0
7FFF80
000018
000038
000078
0000F8
0000F0
0001F0
0001E0
0003E0
0003C0
000780
000F80
000F00
001F00
001E00
001E00
001C00
000000
000000
00E000
01E000
01E000
03E000
07C000
078000
0F8000
0F0000
1F0000
1E0000
3C0000
7C0000
780000
780000
700000
400000
07FFF8
0FFFFC
1FFFFC
0FFFF8
ENDCHAR
STARTCHAR 005B
ENCODING 91
SWIDTH 383 0
DWIDTH 23 0
BBX 15 42 4 0
BITMAP
7FFC
BFFE
DFFE
EFFC
F000
F000
F000
F000
F000
F000
F000
F000
F000
F000
F000
F000
F000
F000
E000
4000
0000
0000
4000
E000
F000
F000
F000
F000
F000
F000
F000
F000
F000
F000
F000
F000
F000
F000
EFFC
DFFE
BFFE
7FFC
ENDCHAR
STARTCHAR 005C
ENCODING 92
SWIDTH 550 0
DWIDTH 33 0
BBX 25 41 4 1
BITMAP
E0000000
F0000000
F0000000
F8000000
78000000
3C000000
3C000000
1E000000
1F000000
0F000000
0F800000
07800000
03C00000
03E00000
01E00000
01F00000
00F00000
00F00000
00700000
00000000
00000000
00040000
000F0000
000F0000
000F8000
00078000
0003C000
0003E000
0001E000
0001F000
0000F000
00007800
00007800
00003C00
00003E00
00001E00
00001F00
00000F00
00000780
00000780
00000300
ENDCHAR
STARTCHAR 005D
ENCODING 93
SWIDTH 366 0
DWIDTH 22 0
BBX 15 42 4 0
BITMAP
7FF8
FFF2
FFE6
7FCE
001E
001E
001E
001E
001E
001E
001E
001E
001E
001E
001E
001E
001E
001E
001C
0008
0000
0000
0008
001C
001E
001E
001E
001E
001E
001E
001E
001E
001E
001E
001E
001E
001E
001E
7FCE
FFE6
FFF2
7FF8
ENDCHAR
STARTCHAR 005E
ENCODING 94
SWIDTH 816 0
DWIDTH 49 0
BBX 41 10 4 18
BITMAP
0000E3C00000
0007F3F00000
001FE3FE0000
00FFE1FF8000
03FF007FF000
1FFC000FFC00
7FE00003FF80
FF0000007F80
FC0000001F80
600000000300
ENDCHAR
STARTCHAR 005F
ENCODING 95
SWIDTH 616 0
DWIDTH 37 0
BBX 29 4 4 0
BITMAP
7FFFFFF0
FFFFFFF8
FFFFFFF8
7FFFFFF0
ENDCHAR
STARTCHAR 0061
ENCODING 97
SWIDTH 516 0
DWIDTH 31 0
BBX 23 42 4 0
BITMAP
0FFFE0
1FFFF0
1FFFF0
6FFFEC
F0001E
F0001E
F0001E
F0001E
F0001E
F0001E
F0001E
F0001E
F0001E
F0001E
F0001E
F0001E
F0001E
F0001E
E0000E
4FFFE4
1FFFF0
1FFFF0
6FFFEC
F0001E
F0001E
F0001E
F0001E
F0001E
F0001E
F0001E
F0001E
F0001E
F0001E
F0001E
F0001E
F0001E
F0001E
F0001E
F0001E
F0001E
E0000E
400004
ENDCHAR
STARTCHAR 0062
ENCODING 98
SWIDTH 516 0
DWIDTH 31 0
BBX 23 42 4 0
BITMAP
7FFFE0
BFFFF0
DFFFF0
EFFFEC
F0001E
F0001E
F0001E
F0001E
F0001E
F0001E
F0001E
F0001E
F0001E
F0001E
F0001E
F0001E
F0001E
F0001E
F0001E
6FFFEC
1FFFF0
1FFFF0
4FFFE4
E0000E
F0001E
F0001E
F0001E
F0001E
F0001E
F0001E
F0001E
F0001E
F0001E
F0001E
F0001E
F0001E
F0001E
F0001E
EFFFEC
DFFFF0
BFFFF0
7FFFE0
ENDCHAR
STARTCHAR 0063
ENCODING 99
SWIDTH 466 0
DWIDTH 28 0
BBX 20 42 4 0
BITMAP
0FFFE0
1FFFF0
1FFFE0
6FFFC0
F00000
F00000
F00000
F00000
F00000
F00000
F00000
F00000
F00000
F00000
F00000
F00000
F00000
F00000
E00000
400000
000000
000000
400000
E00000
F00000
F00000
F00000
F00000
F00000
F00000
F00000
F00000
F00000
F00000
F00000
F00000
F00000
F00000
6FFFC0
1FFFE0
1FFFF0
0FFFE0
ENDCHAR
STARTCHAR 0064
ENCODING 100
SWIDTH 516 0
DWIDTH 31 0
BBX 23 42 4 0
BITMAP
7FFFE0
BFFFF0
DFFFF0
EFFFEC
F0001E
F0001E
F0001E
F0001E
F0001E
F0001E
F0001E
F0001E
F0001E
F0001E
F0001E
F0001E
F0001E
F0001E
E0000E
400004
000000
000000
400004
E0000E
F0001E
F0001E
F0001E
F0001E
F0001E
F0001E
F0001E
F0001E
F0001E
F0001E
F0001E
F0001E
F0001E
F0001E
EFFFEC
DFFFF0
BFFFF0
7FFFE0
ENDCHAR
STARTCHAR 0065
ENCODING 101
SWIDTH 466 0
DWIDTH 28 0
BBX 20 42 4 0
BITMAP
0FFFE0
1FFFF0
1FFFE0
6FFFC0
F00000
F00000
F00000
F00000
F00000
F00000
F00000
F00000
F00000
F00000
F00000
F00000
F00000
F00000
E00000
4FFFE0
1FFFF0
1FFFE0
6FFFC0
F00000
F00000
F00000
F00000
F00000
F00000
F00000
F00000
F00000
F00000
F00000
F00000
F00000
F00000
F00000
6FFFC0
1FFFE0
1FFFF0
0FFFE0
ENDCHAR
STARTCHAR 0066
ENCODING 102
SWIDTH 466 0
DWIDTH 28 0
BBX 20 42 4 0
BITMAP
0FFFE0
1FFFF0
1FFFE0
6FFFC0
F00000
F00000
F00000
F00000
F00000
F00000
F00000
F00000
F00000
F00000
F00000
F00000
F00000
F00000
E00000
4FFFE0
1FFFF0
1FFFE0
6FFFC0
F00000
F00000
F00000
F00000
F00000
F00000
F00000
F00000
F00000
F00000
F00000
F00000
F00000
F00000
F00000
F00000
F00000
E00000
400000
ENDCHAR
STARTCHAR 0067
ENCODING 103
SWIDTH 516 0
DWIDTH 31 0
BBX 23 42 4 0
BITMAP
0FFFE0
1FFFF0
1FFFF0
6FFFE0
F00000
F00000
F00000
F00000
F00000
F00000
F00000
F00000
F00000
F00000
F00000
F00000
F00000
F00000
E00000
407FE0
00FFF0
00FFF0
607FEC
F0001E
F0001E
F0001E
F0001E
F0001E
F0001E
F0001E
F0001E
F0001E
F0001E
F0001E
F0001E
F0001E
F0001E
F0001E
6FFFEC
1FFFF0
1FFFF0
0FFFE0
ENDCHAR
STARTCHAR 0068
ENCODING 104
SWIDTH 516 0
DWIDTH 31 0
BBX 23 41 4 0
BITMAP
60000C
F0001E
F0001E
F0001E
F0001E
F0001E
F0001E
F0001E
F0001E
F0001E
F0001E
F0001E
F0001E
F0001E
F0001E
F0001E
F0001E
F0001E
6FFFEC
1FFFF0
1FFFF0
4FFFE4
E0000E
F0001E
F0001E
F0001E
F0001E
F0001E
F0001E
F0001E
F0001E
F0001E
F0001E
F0001E
F0001E
F0001E
F0001E
F0001E
F0001E
F0001E
60000C
ENDCHAR
STARTCHAR 0069
ENCODING 105
SWIDTH 183 0
DWIDTH 11 0
BBX 4 42 4 0
BITMAP
40
E0
F0
F0
F0
F0
F0
F0
F0
F0
F0
F0
F0
F0
F0
F0
F0
F0
E0
40
00
00
40
E0
F0
F0
F0
F0
F0
F0
F0
F0
F0
F0
F0
F0
F0
F0
F0
F0
E0
40
ENDCHAR
STARTCHAR 006A
ENCODING 106
SWIDTH 516 0
DWIDTH 31 0
BBX 23 42 4 0
BITMAP
000004
00000E
00001E
00001E
00001E
00001E
00001E
00001E
00001E
00001E
00001E
00001E
00001E
00001E
00001E
00001E
00001E
00001E
00000E
000004
000000
000000
400004
E0000E
F0001E
F0001E
F0001E
F0001E
F0001E
F0001E
F0001E
F0001E
F0001E
F0001E
F0001E
F0001E
F0001E
F0001E
6FFFEC
1FFFF0
1FFFF0
0FFFE0
ENDCHAR
STARTCHAR 006B
ENCODING 107
SWIDTH 500 0
DWIDTH 30 0
BBX 23 42 4 -1
BITMAP
40000E
E0001E
F0003E
F0007C
F000F8
F001F0
F003E0
F007C0
F00F80
F01F00
F03E00
F07C00
F0F800
F1F000
F3E000
F7C000
F78000
F70000
F00000
6FFFC0
1FFFE0
1FFFF0
4FFFE8
E0001C
F0001E
F0001E
F0001E
F0001E
F0001E
F0001E
F0001E
F0001E
F0001E
F0001E
F0001E
F0001E
F0001E
F0001E
F0001E
F0001E
E0001C
400008
ENDCHAR
STARTCHAR 006C
ENCODING 108
SWIDTH 466 0
DWIDTH 28 0
BBX 20 42 4 0
BITMAP
400000
E00000
F00000
F00000
F00000
F00000
F00000
F00000
F00000
F00000
F00000
F00000
F00000
F00000
F00000
F00000
F00000
F00000
E00000
400000
000000
000000
400000
E00000
F00000
F00000
F00000
F00000
F00000
F00000
F00000
F00000
F00000
F00000
F00000
F00000
F00000
F00000
6FFFC0
1FFFE0
1FFFF0
0FFFE0
ENDCHAR
STARTCHAR 006D
ENCODING 109
SWIDTH 683 0
DWIDTH 41 0
BBX 34 42 4 0
BITMAP
0FFE1FFC00
1FFF3FFE00
1FFE3FFC00
6FFCDFF980
F001E003C0
F001E003C0
F001E003C0
F001E003C0
F001E003C0
F001E003C0
F001E003C0
F001E003C0
F001E003C0
F001E003C0
F001E003C0
F001E003C0
F001E003C0
F001E003C0
E001C00380
4000800100
0000000000
0000000000
4000000100
E000000380
F0000003C0
F0000003C0
F0000003C0
F0000003C0
F0000003C0
F0000003C0
F0000003C0
F0000003C0
F0000003C0
F0000003C0
F0000003C0
F0000003C0
F0000003C0
F0000003C0
F0000003C0
F0000003C0
E000000380
4000000100
ENDCHAR
STARTCHAR 006E
ENCODING 110
SWIDTH 516 0
DWIDTH 31 0
BBX 23 42 4 0
BITMAP
0FFFE0
1FFFF0
1FFFF0
6FFFEC
F0001E
F0001E
F0001E
F0001E
F0001E
F0001E
F0001E
F0001E
F0001E
F0001E
F0001E
F0001E
F0001E
F0001E
E0000E
400004
000000
000000
400004
E0000E
F0001E
F0001E
F0001E
F0001E
F0001E
F0001E
F0001E
F0001E
F0001E
F0001E
F0001E
F0001E
F0001E
F0001E
F0001E
F0001E
E0000E
400004
ENDCHAR
STARTCHAR 006F
ENCODING 111
SWIDTH 516 0
DWIDTH 31 0
BBX 23 42 4 0
BITMAP
0FFFE0
1FFFF0
1FFFF0
6FFFEC
F0001E
F0001E
F0001E
F0001E
F0001E
F0001E
F0001E
F0001E
F0001E
F0001E
F0001E
F0001E
F0001E
F0001E
E0000E
400004
000000
000000
400004
E0000E
F0001E
F0001E
F0001E
F0001E
F0001E
F0001E
F0001E
F0001E
F0001E
F0001E
F0001E
F0001E
F0001E
F0001E
6FFFEC
1FFFF0
1FFFF0
0FFFE0
ENDCHAR
STARTCHAR 0070
ENCODING 112
SWIDTH 516 0
DWIDTH 31 0
BBX 23 42 4 0
BITMAP
0FFFE0
1FFFF0
1FFFF0
6FFFEC
F0001E
F0001E
F0001E
F0001E
F0001E
F0001E
F0001E
F0001E
F0001E
F0001E
F0001E
F0001E
F0001E
F0001E
E0000E
4FFFE4
1FFFF0
1FFFF0
6FFFE0
F00000
F00000
F00000
F00000
F00000
F00000
F00000
F00000
F00000
F00000
F00000
F00000
F00000
F00000
F00000
F00000
F00000
E00000
400000
ENDCHAR
STARTCHAR 0071
ENCODING 113
SWIDTH 516 0
DWIDTH 31 0
BBX 23 42 4 0
BITMAP
0FFFE0
1FFFF0
1FFFF0
6FFFEC
F0001E
F0001E
F0001E
F0001E
F0001E
F0001E
F0001E
F0001E
F0001E
F0001E
F0001E
F0001E
F0001E
F0001E
E0000E
400004
000000
000000
400004
E0000E
F0001E
F0001E
F0001E
F0001E
F0001E
F0001E
F0001E
F0001E
F0001E
F0000E
F000E4
F000F0
F000F8
F0007C
6FFFBE
1FFFDE
1FFFCE
0FFF80
ENDCHAR
STARTCHAR 0072
ENCODING 114
SWIDTH 516 0
DWIDTH 31 0
BBX 23 42 4 -1
BITMAP
0FFFE0
1FFFF0
1FFFF0
6FFFEC
F0001E
F0001E
F0001E
F0001E
F0001E
F0001E
F0001E
F0001E
F0001E
F0001E
F0001E
F0001E
F0001E
F0001E
F0001E
6FFFEC
1FFFF0
1FFFF0
4FFFE0
E00000
F00000
F78000
F7C000
F3E000
F1F000
F0F800
F07C00
F03E00
F01F00
F00F80
F007C0
F003E0
F001F0
F000F8
F0007C
F0003E
E0001E
40000E
ENDCHAR
STARTCHAR 0073
ENCODING 115
SWIDTH 516 0
DWIDTH 31 0
BBX 23 42 4 0
BITMAP
0FFFE0
1FFFF0
1FFFF0
6FFFE0
F00000
F00000
F00000
F00000
F00000
F00000
F00000
F00000
F00000
F00000
F00000
F00000
F00000
F00000
E00000
4FFFE0
1FFFF0
1FFFF0
0FFFEC
00001E
00001E
00001E
00001E
00001E
00001E
00001E
00001E
00001E
00001E
00001E
00001E
00001E
00001E
00001E
0FFFEC
1FFFF0
1FFFF0
0FFFE0
ENDCHAR
STARTCHAR 0074
ENCODING 116
SWIDTH 583 0
DWIDTH 35 0
BBX 27 42 4 0
BITMAP
7FF0FFC0
FFF9FFE0
7FF1FFE0
3FE6FFC0
000F0000
000F0000
000F0000
000F0000
000F0000
000F0000
000F0000
000F0000
000F0000
000F0000
000F0000
000F0000
000F0000
000F0000
000E0000
00040000
00000000
00000000
00040000
000E0000
000F0000
000F0000
000F0000
000F0000
000F0000
000F0000
000F0000
000F0000
000F0000
000F0000
000F0000
000F0000
000F0000
000F0000
000F0000
000F0000
000E0000
00040000
ENDCHAR
STARTCHAR 0075
ENCODING 117
SWIDTH 516 0
DWIDTH 31 0
BBX 23 42 4 0
BITMAP
400004
E0000E
F0001E
F0001E
F0001E
F0001E
F0001E
F0001E
F0001E
F0001E
F0001E
F0001E
F0001E
F0001E
F0001E
F0001E
F0001E
F0001E
E0000E
400004
000000
000000
400004
E0000E
F0001E
F0001E
F0001E
F0001E
F0001E
F0001E
F0001E
F0001E
F0001E
F0001E
F0001E
F0001E
F0001E
F0001E
6FFFEC
1FFFF0
1FFFF0
0FFFE0
ENDCHAR
STARTCHAR 0076
ENCODING 118
SWIDTH 516 0
DWIDTH 31 0
BBX 23 42 4 0
BITMAP
400004
E0000E
F0001E
F0001E
F0001E
F0001E
F0001E
F0001E
F0001E
F0001E
F0001E
F0001E
F0001E
F0001E
F0001E
F0001E
F0001E
F0001E
E0000E
400004
000000
000000
60000C
F0001E
F0001E
78003C
78003C
78003C
3C0078
3C0078
1E00F8
1E00F0
1E00F0
0F01E0
0F01E0
0F83E0
0783C0
0783C0
03C780
03C780
03C780
008200
ENDCHAR
STARTCHAR 0077
ENCODING 119
SWIDTH 683 0
DWIDTH 41 0
BBX 34 42 4 0
BITMAP
4000000100
E000000380
F0000003C0
F0000003C0
F0000003C0
F0000003C0
F0000003C0
F0000003C0
F0000003C0
F0000003C0
F0000003C0
F0000003C0
F0000003C0
F0000003C0
F0000003C0
F0000003C0
F0000003C0
F0000003C0
E000000380
4000000100
0000000000
0000000000
6000C00180
F001E003C0
F001E003C0
F001E003C0
F001E003C0
F001E003C0
F001E003C0
F001E003C0
F001E003C0
F001E003C0
F001E003C0
F001E003C0
F001E003C0
F001E003C0
F001E003C0
F001E003C0
6FFCDFF980
1FFE3FFC00
1FFF3FFE00
0FFE1FFC00
ENDCHAR
STARTCHAR 0078
ENCODING 120
SWIDTH 500 0
DWIDTH 30 0
BBX 23 42 4 1
BITMAP
C0000C
E0001C
F0003E
F0003C
F8003C
780078
780078
3C00F8
3C00F0
3C00F0
1E01E0
1E01E0
0F03E0
0F03C0
0F03C0
078780
078780
03CF80
038700
018600
000000
000000
018600
038700
03CF80
078780
078780
0F03C0
0F03C0
0F03E0
1E01E0
1E01E0
3C00F0
3C00F0
3C00F8
780078
780078
F8003C
F0003C
F0003E
E0001C
C0000C
ENDCHAR
STARTCHAR 0079
ENCODING 121
SWIDTH 516 0
DWIDTH 31 0
BBX 23 42 4 1
BITMAP
60000C
F0001E
F0001E
F0001E
F0001E
F0001E
F0001E
F0001E
F0001E
F0001E
F0001E
F0001E
F0001E
F0001E
F0001E
F0001E
F0001E
F0001E
E0000E
4FFFE4
1FFFF0
1FFFF0
0FFFEC
00001E
00001E
00001E
00001E
00001E
00001E
00001E
00001E
00001E
00001E
00001E
00001E
00001E
00001E
00001E
0FFFEC
1FFFF0
1FFFF0
0FFFE0
ENDCHAR
STARTCHAR 007A
ENCODING 122
SWIDTH 500 0
DWIDTH 30 0
BBX 22 42 4 0
BITMAP
7FFFC0
FFFFE0
FFFFC0
7FFF80
000018
000038
000078
0000F8
0000F0
0001F0
0001E0
0003E0
0003C0
000780
000F80
000F00
001F00
001E00
001E00
001C00
000000
000000
00E000
01E000
01E000
03E000
07C000
078000
0F8000
0F0000
1F0000
1E0000
3C0000
7C0000
780000
780000
700000
400000
07FFF8
0FFFFC
1FFFFC
0FFFF8
ENDCHAR
STARTCHAR 007B
ENCODING 123
SWIDTH 483 0
DWIDTH 29 0
BBX 21 42 4 0
BITMAP
003FF0
007FF8
007FF8
01BFF0
03C000
03C000
03C000
03C000
03C000
03C000
03C000
03C000
03C000
03C000
03C000
03C000
03C000
03C000
038000
790000
FC0000
7C0000
398000
03C000
03C000
03C000
03C000
03C000
03C000
03C000
03C000
03C000
03C000
03C000
03C000
03C000
03C000
03C000
01BFF0
007FF8
007FF8
003FF0
ENDCHAR
STARTCHAR 007C
ENCODING 124
SWIDTH 183 0
DWIDTH 11 0
BBX 4 46 4 1
BITMAP
60
F0
F0
F0
F0
F0
F0
F0
F0
F0
F0
F0
F0
F0
F0
F0
F0
F0
F0
F0
F0
F0
F0
F0
F0
F0
F0
F0
F0
F0
F0
F0
F0
F0
F0
F0
F0
F0
F0
F0
F0
F0
F0
F0
E0
40
ENDCHAR
STARTCHAR 007D
ENCODING 125
SWIDTH 466 0
DWIDTH 28 0
BBX 20 42 4 0
BITMAP
7FE000
FFF000
FFE000
7FCC00
001E00
001E00
001E00
001E00
001E00
001E00
001E00
001E00
001E00
001E00
001E00
001E00
001E00
001E00
001C00
0009E0
0003F0
0001F0
000CE0
001E00
001E00
001E00
001E00
001E00
001E00
001E00
001E00
001E00
001E00
001E00
001E00
001E00
001E00
001E00
7FCC00
FFE000
FFF000
7FE000
ENDCHAR
STARTCHAR 00A0
ENCODING 160
SWIDTH 716 0
DWIDTH 43 0
BBX 0 0 0 0
BITMAP
ENDCHAR
STARTCHAR 00A9
ENCODING 169
SWIDTH 500 0
DWIDTH 30 0
BBX 23 26 4 0
BITMAP
0FFFC0
1FFFE0
1FFFF0
4FFFE8
60000C
F0001E
F0001E
F0001E
F0FF1E
F0FF1E
F3001E
F3001E
F3001E
F3001E
F3001E
F3001E
F3001E
F0FF1E
F0FF1E
F0001E
F0001E
F0001E
4FFFC8
1FFFE0
1FFFF0
0FFFE0
ENDCHAR
STARTCHAR 00AB
ENCODING 171
SWIDTH 450 0
DWIDTH 27 0
BBX 19 42 4 1
BITMAP
018060
0380E0
03C1E0
0781E0
0783E0
0F83C0
0F03C0
0F0780
1E0780
1E0F80
3E0F00
3C0F00
3C1E00
781E00
783E00
F83C00
F03C00
F07800
E07800
C03000
000000
000000
E03000
E07800
F07800
F03C00
783C00
781E00
781E00
3C1E00
3C0F00
1E0F00
1E0F80
1E0780
0F0780
0F03C0
0F83C0
0783E0
0781E0
03C1E0
0380E0
008060
ENDCHAR
STARTCHAR 00AD
ENCODING 173
SWIDTH 0 0
DWIDTH 0 0
BBX 0 0 0 0
BITMAP
ENDCHAR
STARTCHAR 00BB
ENCODING 187
SWIDTH 450 0
DWIDTH 27 0
BBX 19 42 4 1
BITMAP
C03000
E03800
F07800
F03C00
F83C00
783C00
781E00
3C1E00
3C0F00
3C0F00
1E0F00
1E0780
0F0780
0F03C0
0F03C0
0783C0
0781E0
03C1E0
0380E0
018060
000000
000000
0180E0
0380E0
03C1E0
0781E0
0783C0
0F03C0
0F03C0
0F0780
1E0780
1E0F00
3C0F00
3C0F00
3C1E00
781E00
783C00
F83C00
F03C00
F07800
E03800
C02000
ENDCHAR
STARTCHAR 00C0
ENCODING 192
SWIDTH 516 0
DWIDTH 31 0
BBX 23 42 4 0
BITMAP
0FFFE0
1FFFF0
1FFFF0
6FFFEC
F0001E
F0001E
F0001E
F0001E
F0001E
F0001E
F0001E
F0001E
F0001E
F0001E
F0001E
F0001E
F0001E
F0001E
E0000E
4FFFE4
1FFFF0
1FFFF0
6FFFEC
F0001E
F0001E
F0001E
F0001E
F0001E
F0001E
F0001E
F0001E
F0001E
F0001E
F0001E
F0001E
F0001E
F0001E
F0001E
F0001E
F0001E
E0000E
400004
ENDCHAR
STARTCHAR 00C1
ENCODING 193
SWIDTH 516 0
DWIDTH 31 0
BBX 23 52 4 0
BITMAP
0001C0
0003C0
0007C0
000F80
003F00
003E00
003C00
003800
000000
000000
0FFFE0
1FFFF0
1FFFF0
6FFFEC
F0001E
F0001E
F0001E
F0001E
F0001E
F0001E
F0001E
F0001E
F0001E
F0001E
F0001E
F0001E
F0001E
F0001E
E0000E
4FFFE4
1FFFF0
1FFFF0
6FFFEC
F0001E
F0001E
F0001E
F0001E
F0001E
F0001E
F0001E
F0001E
F0001E
F0001E
F0001E
F0001E
F0001E
F0001E
F0001E
F0001E
F0001E
E0000E
400004
ENDCHAR
STARTCHAR 00C2
ENCODING 194
SWIDTH 516 0
DWIDTH 31 0
BBX 23 42 4 0
BITMAP
0FFFE0
1FFFF0
1FFFF0
6FFFEC
F0001E
F0001E
F0001E
F0001E
F0001E
F0001E
F0001E
F0001E
F0001E
F0001E
F0001E
F0001E
F0001E
F0001E
E0000E
4FFFE4
1FFFF0
1FFFF0
6FFFEC
F0001E
F0001E
F0001E
F0001E
F0001E
F0001E
F0001E
F0001E
F0001E
F0001E
F0001E
F0001E
F0001E
F0001E
F0001E
F0001E
F0001E
E0000E
400004
ENDCHAR
STARTCHAR 00C3
ENCODING 195
SWIDTH 516 0
DWIDTH 31 0
BBX 23 42 4 0
BITMAP
0FFFE0
1FFFF0
1FFFF0
6FFFEC
F0001E
F0001E
F0001E
F0001E
F0001E
F0001E
F0001E
F0001E
F0001E
F0001E
F0001E
F0001E
F0001E
F0001E
E0000E
4FFFE4
1FFFF0
1FFFF0
6FFFEC
F0001E
F0001E
F0001E
F0001E
F0001E
F0001E
F0001E
F0001E
F0001E
F0001E
F0001E
F0001E
F0001E
F0001E
F0001E
F0001E
F0001E
E0000E
400004
ENDCHAR
STARTCHAR 00C4
ENCODING 196
SWIDTH 516 0
DWIDTH 31 0
BBX 23 49 4 1
BITMAP
030180
0783C0
0783C0
0783C0
030180
000000
000000
0FFFE0
1FFFF0
0FFFE0
67FFCC
F0001E
F0001E
F0001E
F0001E
F0001E
F0001E
F0001E
F0001E
F0001E
F0001E
F0001E
F0001E
F0001E
F0001E
E0000E
4FFFE4
1FFFF0
0FFFE0
67FFCC
F0001E
F0001E
F0001E
F0001E
F0001E
F0001E
F0001E
F0001E
F0001E
F0001E
F0001E
F0001E
F0001E
F0001E
F0001E
F0001E
F0001E
E0000E
400004
ENDCHAR
STARTCHAR 00C7
ENCODING 199
SWIDTH 466 0
DWIDTH 28 0
BBX 20 49 4 -8
BITMAP
0FFFE0
1FFFF0
1FFFF0
6FFFE0
F00000
F00000
F00000
F00000
F00000
F00000
F00000
F00000
F00000
F00000
F00000
F00000
F00000
F00000
E00000
400000
000000
000000
400000
E00000
F00000
F00000
F00000
F00000
F00000
F00000
F00000
F00000
F00000
F00000
F00000
F00000
F00000
F00000
6FFFE0
1FFFF0
1FFFF0
0FFFE0
000000
000000
006000
00F000
00F000
00F000
006000
ENDCHAR
STARTCHAR 00C8
ENCODING 200
SWIDTH 466 0
DWIDTH 28 0
BBX 20 42 4 0
BITMAP
0FFFE0
1FFFF0
1FFFE0
6FFFC0
F00000
F00000
F00000
F00000
F00000
F00000
F00000
F00000
F00000
F00000
F00000
F00000
F00000
F00000
E00000
4FFFE0
1FFFF0
1FFFE0
6FFFC0
F00000
F00000
F00000
F00000
F00000
F00000
F00000
F00000
F00000
F00000
F00000
F00000
F00000
F00000
F00000
6FFFC0
1FFFE0
1FFFF0
0FFFE0
ENDCHAR
STARTCHAR 00C9
ENCODING 201
SWIDTH 450 0
DWIDTH 27 0
BBX 19 52 4 0
BITMAP
000700
000F00
001F00
003E00
007C00
00F800
00F000
00F000
000000
000000
0FFFC0
1FFFE0
1FFFE0
67FFC0
F00000
F00000
F00000
F00000
F00000
F00000
F00000
F00000
F00000
F00000
F00000
F00000
F00000
F00000
E00000
4FFFC0
1FFFE0
1FFFE0
67FFC0
F00000
F00000
F00000
F00000
F00000
F00000
F00000
F00000
F00000
F00000
F00000
F00000
F00000
F00000
F00000
6FFFC0
1FFFE0
1FFFE0
0FFFC0
ENDCHAR
STARTCHAR 00CB
ENCODING 203
SWIDTH 466 0
DWIDTH 28 0
BBX 20 49 4 1
BITMAP
0C0300
1E0780
1E0780
1E0780
0C0300
000000
000000
0FFFE0
1FFFF0
1FFFF0
6FFFE0
F00000
F00000
F00000
F00000
F00000
F00000
F00000
F00000
F00000
F00000
F00000
F00000
F00000
F00000
E00000
4FFFE0
1FFFF0
1FFFF0
4FFFE0
F00000
F00000
F00000
F00000
F00000
F00000
F00000
F00000
F00000
F00000
F00000
F00000
F00000
F00000
F00000
6FFFE0
1FFFF0
1FFFF0
0FFFE0
ENDCHAR
STARTCHAR 00CC
ENCODING 204
SWIDTH 183 0
DWIDTH 11 0
BBX 4 42 4 0
BITMAP
40
E0
F0
F0
F0
F0
F0
F0
F0
F0
F0
F0
F0
F0
F0
F0
F0
F0
E0
40
00
00
40
E0
F0
F0
F0
F0
F0
F0
F0
F0
F0
F0
F0
F0
F0
F0
F0
F0
E0
40
ENDCHAR
STARTCHAR 00CD
ENCODING 205
SWIDTH 183 0
DWIDTH 11 0
BBX 4 42 4 0
BITMAP
40
E0
F0
F0
F0
F0
F0
F0
F0
F0
F0
F0
F0
F0
F0
F0
F0
F0
E0
40
00
00
40
E0
F0
F0
F0
F0
F0
F0
F0
F0
F0
F0
F0
F0
F0
F0
F0
F0
E0
40
ENDCHAR
STARTCHAR 00CE
ENCODING 206
SWIDTH 183 0
DWIDTH 11 0
BBX 4 42 4 0
BITMAP
40
E0
F0
F0
F0
F0
F0
F0
F0
F0
F0
F0
F0
F0
F0
F0
F0
F0
E0
40
00
00
40
E0
F0
F0
F0
F0
F0
F0
F0
F0
F0
F0
F0
F0
F0
F0
F0
F0
E0
40
ENDCHAR
STARTCHAR 00D2
ENCODING 210
SWIDTH 516 0
DWIDTH 31 0
BBX 23 52 4 0
BITMAP
000E00
001E00
003E00
007E00
00FC00
00F800
00F000
00E000
000000
000000
0FFFE0
1FFFF0
1FFFF0
6FFFEC
F0001E
F0001E
F0001E
F0001E
F0001E
F0001E
F0001E
F0001E
F0001E
F0001E
F0001E
F0001E
F0001E
F0001E
E0000E
400004
000000
000000
400004
E0000E
F0001E
F0001E
F0001E
F0001E
F0001E
F0001E
F0001E
F0001E
F0001E
F0001E
F0001E
F0001E
F0001E
F0001E
6FFFEC
1FFFF0
1FFFF0
0FFFE0
ENDCHAR
STARTCHAR 00D3
ENCODING 211
SWIDTH 516 0
DWIDTH 31 0
BBX 23 42 4 0
BITMAP
0FFFE0
1FFFF0
1FFFF0
6FFFEC
F0001E
F0001E
F0001E
F0001E
F0001E
F0001E
F0001E
F0001E
F0001E
F0001E
F0001E
F0001E
F0001E
F0001E
E0000E
400004
000000
000000
400004
E0000E
F0001E
F0001E
F0001E
F0001E
F0001E
F0001E
F0001E
F0001E
F0001E
F0001E
F0001E
F0001E
F0001E
F0001E
6FFFEC
1FFFF0
1FFFF0
0FFFE0
ENDCHAR
STARTCHAR 00D4
ENCODING 212
SWIDTH 516 0
DWIDTH 31 0
BBX 23 42 4 0
BITMAP
0FFFE0
1FFFF0
1FFFF0
6FFFEC
F0001E
F0001E
F0001E
F0001E
F0001E
F0001E
F0001E
F0001E
F0001E
F0001E
F0001E
F0001E
F0001E
F0001E
E0000E
400004
000000
000000
400004
E0000E
F0001E
F0001E
F0001E
F0001E
F0001E
F0001E
F0001E
F0001E
F0001E
F0001E
F0001E
F0001E
F0001E
F0001E
6FFFEC
1FFFF0
1FFFF0
0FFFE0
ENDCHAR
STARTCHAR 00D5
ENCODING 213
SWIDTH 516 0
DWIDTH 31 0
BBX 23 42 4 0
BITMAP
0FFFE0
1FFFF0
1FFFF0
6FFFEC
F0001E
F0001E
F0001E
F0001E
F0001E
F0001E
F0001E
F0001E
F0001E
F0001E
F0001E
F0001E
F0001E
F0001E
E0000E
400004
000000
000000
400004
E0000E
F0001E
F0001E
F0001E
F0001E
F0001E
F0001E
F0001E
F0001E
F0001E
F0001E
F0001E
F0001E
F0001E
F0001E
6FFFEC
1FFFF0
1FFFF0
0FFFE0
ENDCHAR
STARTCHAR 00D6
ENCODING 214
SWIDTH 516 0
DWIDTH 31 0
BBX 23 49 4 1
BITMAP
030180
0783C0
0783C0
0783C0
030180
000000
000000
0FFFE0
1FFFF0
0FFFE0
67FFCC
F0001E
F0001E
F0001E
F0001E
F0001E
F0001E
F0001E
F0001E
F0001E
F0001E
F0001E
F0001E
F0001E
F0001E
E0000E
400004
000000
000000
400004
E0000E
F0001E
F0001E
F0001E
F0001E
F0001E
F0001E
F0001E
F0001E
F0001E
F0001E
F0001E
F0001E
F0001E
F0001E
67FFCC
0FFFE0
1FFFF0
0FFFE0
ENDCHAR
STARTCHAR 00D9
ENCODING 217
SWIDTH 516 0
DWIDTH 31 0
BBX 23 52 4 0
BITMAP
000E00
001E00
003E00
007E00
00FC00
00F800
00F000
00E000
000000
000000
400004
E0000E
F0001E
F0001E
F0001E
F0001E
F0001E
F0001E
F0001E
F0001E
F0001E
F0001E
F0001E
F0001E
F0001E
F0001E
F0001E
F0001E
E0000E
400004
000000
000000
400004
E0000E
F0001E
F0001E
F0001E
F0001E
F0001E
F0001E
F0001E
F0001E
F0001E
F0001E
F0001E
F0001E
F0001E
F0001E
6FFFEC
1FFFF0
1FFFF0
0FFFE0
ENDCHAR
STARTCHAR 00DA
ENCODING 218
SWIDTH 516 0
DWIDTH 31 0
BBX 23 42 4 0
BITMAP
400004
E0000E
F0001E
F0001E
F0001E
F0001E
F0001E
F0001E
F0001E
F0001E
F0001E
F0001E
F0001E
F0001E
F0001E
F0001E
F0001E
F0001E
E0000E
400004
000000
000000
400004
E0000E
F0001E
F0001E
F0001E
F0001E
F0001E
F0001E
F0001E
F0001E
F0001E
F0001E
F0001E
F0001E
F0001E
F0001E
6FFFEC
1FFFF0
1FFFF0
0FFFE0
ENDCHAR
STARTCHAR 00DC
ENCODING 220
SWIDTH 516 0
DWIDTH 31 0
BBX 23 49 4 1
BITMAP
030180
0783C0
0783C0
0783C0
030180
000000
000000
400004
E0000E
F0001E
F0001E
F0001E
F0001E
F0001E
F0001E
F0001E
F0001E
F0001E
F0001E
F0001E
F0001E
F0001E
F0001E
F0001E
F0001E
E0000E
400004
000000
000000
400004
E0000E
F0001E
F0001E
F0001E
F0001E
F0001E
F0001E
F0001E
F0001E
F0001E
F0001E
F0001E
F0001E
F0001E
F0001E
67FFCC
0FFFE0
1FFFF0
0FFFE0
ENDCHAR
STARTCHAR 00DF
ENCODING 223
SWIDTH 450 0
DWIDTH 27 0
BBX 20 42 4 0
BITMAP
7FFF00
FFFF80
FFFF00
7FFE60
0000F0
0200F0
0700F0
0780F0
0780F0
0780F0
0780F0
0780F0
0780F0
0780F0
0780F0
0780F0
0300F0
0000F0
0000E0
7FFF40
FFFF80
FFFF00
7FFE60
0000F0
0000F0
0300F0
0780F0
0780F0
0780F0
0780F0
0780F0
0780F0
0780F0
0780F0
0780F0
0300F0
0000F0
0000F0
7FFE60
FFFF00
FFFF80
7FFF00
ENDCHAR
STARTCHAR 00E0
ENCODING 224
SWIDTH 516 0
DWIDTH 31 0
BBX 23 42 4 0
BITMAP
0FFFE0
1FFFF0
1FFFF0
6FFFEC
F0001E
F0001E
F0001E
F0001E
F0001E
F0001E
F0001E
F0001E
F0001E
F0001E
F0001E
F0001E
F0001E
F0001E
E0000E
4FFFE4
1FFFF0
1FFFF0
6FFFEC
F0001E
F0001E
F0001E
F0001E
F0001E
F0001E
F0001E
F0001E
F0001E
F0001E
F0001E
F0001E
F0001E
F0001E
F0001E
F0001E
F0001E
E0000E
400004
ENDCHAR
STARTCHAR 00E1
ENCODING 225
SWIDTH 516 0
DWIDTH 31 0
BBX 23 42 4 0
BITMAP
0FFFE0
1FFFF0
1FFFF0
6FFFEC
F0001E
F0001E
F0001E
F0001E
F0001E
F0001E
F0001E
F0001E
F0001E
F0001E
F0001E
F0001E
F0001E
F0001E
E0000E
4FFFE4
1FFFF0
1FFFF0
6FFFEC
F0001E
F0001E
F0001E
F0001E
F0001E
F0001E
F0001E
F0001E
F0001E
F0001E
F0001E
F0001E
F0001E
F0001E
F0001E
F0001E
F0001E
E0000E
400004
ENDCHAR
STARTCHAR 00E2
ENCODING 226
SWIDTH 516 0
DWIDTH 31 0
BBX 23 42 4 0
BITMAP
0FFFE0
1FFFF0
1FFFF0
6FFFEC
F0001E
F0001E
F0001E
F0001E
F0001E
F0001E
F0001E
F0001E
F0001E
F0001E
F0001E
F0001E
F0001E
F0001E
E0000E
4FFFE4
1FFFF0
1FFFF0
6FFFEC
F0001E
F0001E
F0001E
F0001E
F0001E
F0001E
F0001E
F0001E
F0001E
F0001E
F0001E
F0001E
F0001E
F0001E
F0001E
F0001E
F0001E
E0000E
400004
ENDCHAR
STARTCHAR 00E3
ENCODING 227
SWIDTH 516 0
DWIDTH 31 0
BBX 23 42 4 0
BITMAP
0FFFE0
1FFFF0
1FFFF0
6FFFEC
F0001E
F0001E
F0001E
F0001E
F0001E
F0001E
F0001E
F0001E
F0001E
F0001E
F0001E
F0001E
F0001E
F0001E
E0000E
4FFFE4
1FFFF0
1FFFF0
6FFFEC
F0001E
F0001E
F0001E
F0001E
F0001E
F0001E
F0001E
F0001E
F0001E
F0001E
F0001E
F0001E
F0001E
F0001E
F0001E
F0001E
F0001E
E0000E
400004
ENDCHAR
STARTCHAR 00E4
ENCODING 228
SWIDTH 516 0
DWIDTH 31 0
BBX 23 42 4 0
BITMAP
0FFFE0
1FFFF0
1FFFF0
6FFFEC
F0001E
F0001E
F0001E
F0001E
F0001E
F0001E
F0001E
F0001E
F0001E
F0001E
F0001E
F0001E
F0001E
F0001E
E0000E
4FFFE4
1FFFF0
1FFFF0
6FFFEC
F0001E
F0001E
F0001E
F0001E
F0001E
F0001E
F0001E
F0001E
F0001E
F0001E
F0001E
F0001E
F0001E
F0001E
F0001E
F0001E
F0001E
E0000E
400004
ENDCHAR
STARTCHAR 00E7
ENCODING 231
SWIDTH 466 0
DWIDTH 28 0
BBX 20 49 4 -8
BITMAP
0FFFE0
1FFFF0
1FFFF0
6FFFE0
F00000
F00000
F00000
F00000
F00000
F00000
F00000
F00000
F00000
F00000
F00000
F00000
F00000
F00000
E00000
400000
000000
000000
400000
E00000
F00000
F00000
F00000
F00000
F00000
F00000
F00000
F00000
F00000
F00000
F00000
F00000
F00000
F00000
6FFFE0
1FFFF0
1FFFF0
0FFFE0
000000
000000
006000
00F000
00F000
00F000
006000
ENDCHAR
STARTCHAR 00E8
ENCODING 232
SWIDTH 466 0
DWIDTH 28 0
BBX 20 42 4 0
BITMAP
0FFFE0
1FFFF0
1FFFE0
6FFFC0
F00000
F00000
F00000
F00000
F00000
F00000
F00000
F00000
F00000
F00000
F00000
F00000
F00000
F00000
E00000
4FFFE0
1FFFF0
1FFFE0
6FFFC0
F00000
F00000
F00000
F00000
F00000
F00000
F00000
F00000
F00000
F00000
F00000
F00000
F00000
F00000
F00000
6FFFC0
1FFFE0
1FFFF0
0FFFE0
ENDCHAR
STARTCHAR 00E9
ENCODING 233
SWIDTH 466 0
DWIDTH 28 0
BBX 20 42 4 0
BITMAP
0FFFE0
1FFFF0
1FFFE0
6FFFC0
F00000
F00000
F00000
F00000
F00000
F00000
F00000
F00000
F00000
F00000
F00000
F00000
F00000
F00000
E00000
4FFFE0
1FFFF0
1FFFE0
6FFFC0
F00000
F00000
F00000
F00000
F00000
F00000
F00000
F00000
F00000
F00000
F00000
F00000
F00000
F00000
F00000
6FFFC0
1FFFE0
1FFFF0
0FFFE0
ENDCHAR
STARTCHAR 00EA
ENCODING 234
SWIDTH 466 0
DWIDTH 28 0
BBX 20 42 4 0
BITMAP
0FFFE0
1FFFF0
1FFFE0
6FFFC0
F00000
F00000
F00000
F00000
F00000
F00000
F00000
F00000
F00000
F00000
F00000
F00000
F00000
F00000
E00000
4FFFE0
1FFFF0
1FFFE0
6FFFC0
F00000
F00000
F00000
F00000
F00000
F00000
F00000
F00000
F00000
F00000
F00000
F00000
F00000
F00000
F00000
6FFFC0
1FFFE0
1FFFF0
0FFFE0
ENDCHAR
STARTCHAR 00EC
ENCODING 236
SWIDTH 183 0
DWIDTH 11 0
BBX 4 42 4 0
BITMAP
40
E0
F0
F0
F0
F0
F0
F0
F0
F0
F0
F0
F0
F0
F0
F0
F0
F0
E0
40
00
00
40
E0
F0
F0
F0
F0
F0
F0
F0
F0
F0
F0
F0
F0
F0
F0
F0
F0
E0
40
ENDCHAR
STARTCHAR 00ED
ENCODING 237
SWIDTH 183 0
DWIDTH 11 0
BBX 4 42 4 0
BITMAP
40
E0
F0
F0
F0
F0
F0
F0
F0
F0
F0
F0
F0
F0
F0
F0
F0
F0
E0
40
00
00
40
E0
F0
F0
F0
F0
F0
F0
F0
F0
F0
F0
F0
F0
F0
F0
F0
F0
E0
40
ENDCHAR
STARTCHAR 00EE
ENCODING 238
SWIDTH 183 0
DWIDTH 11 0
BBX 4 42 4 0
BITMAP
40
E0
F0
F0
F0
F0
F0
F0
F0
F0
F0
F0
F0
F0
F0
F0
F0
F0
E0
40
00
00
40
E0
F0
F0
F0
F0
F0
F0
F0
F0
F0
F0
F0
F0
F0
F0
F0
F0
E0
40
ENDCHAR
STARTCHAR 00F2
ENCODING 242
SWIDTH 516 0
DWIDTH 31 0
BBX 23 42 4 0
BITMAP
0FFFE0
1FFFF0
1FFFF0
6FFFEC
F0001E
F0001E
F0001E
F0001E
F0001E
F0001E
F0001E
F0001E
F0001E
F0001E
F0001E
F0001E
F0001E
F0001E
E0000E
400004
000000
000000
400004
E0000E
F0001E
F0001E
F0001E
F0001E
F0001E
F0001E
F0001E
F0001E
F0001E
F0001E
F0001E
F0001E
F0001E
F0001E
6FFFEC
1FFFF0
1FFFF0
0FFFE0
ENDCHAR
STARTCHAR 00F3
ENCODING 243
SWIDTH 516 0
DWIDTH 31 0
BBX 23 42 4 0
BITMAP
0FFFE0
1FFFF0
1FFFF0
6FFFEC
F0001E
F0001E
F0001E
F0001E
F0001E
F0001E
F0001E
F0001E
F0001E
F0001E
F0001E
F0001E
F0001E
F0001E
E0000E
400004
000000
000000
400004
E0000E
F0001E
F0001E
F0001E
F0001E
F0001E
F0001E
F0001E
F0001E
F0001E
F0001E
F0001E
F0001E
F0001E
F0001E
6FFFEC
1FFFF0
1FFFF0
0FFFE0
ENDCHAR
STARTCHAR 00F4
ENCODING 244
SWIDTH 516 0
DWIDTH 31 0
BBX 23 42 4 0
BITMAP
0FFFE0
1FFFF0
1FFFF0
6FFFEC
F0001E
F0001E
F0001E
F0001E
F0001E
F0001E
F0001E
F0001E
F0001E
F0001E
F0001E
F0001E
F0001E
F0001E
E0000E
400004
000000
000000
400004
E0000E
F0001E
F0001E
F0001E
F0001E
F0001E
F0001E
F0001E
F0001E
F0001E
F0001E
F0001E
F0001E
F0001E
F0001E
6FFFEC
1FFFF0
1FFFF0
0FFFE0
ENDCHAR
STARTCHAR 00F5
ENCODING 245
SWIDTH 516 0
DWIDTH 31 0
BBX 23 42 4 0
BITMAP
0FFFE0
1FFFF0
1FFFF0
6FFFEC
F0001E
F0001E
F0001E
F0001E
F0001E
F0001E
F0001E
F0001E
F0001E
F0001E
F0001E
F0001E
F0001E
F0001E
E0000E
400004
000000
000000
400004
E0000E
F0001E
F0001E
F0001E
F0001E
F0001E
F0001E
F0001E
F0001E
F0001E
F0001E
F0001E
F0001E
F0001E
F0001E
6FFFEC
1FFFF0
1FFFF0
0FFFE0
ENDCHAR
STARTCHAR 00F6
ENCODING 246
SWIDTH 516 0
DWIDTH 31 0
BBX 23 49 4 1
BITMAP
030180
0783C0
0783C0
0783C0
030180
000000
000000
0FFFE0
1FFFF0
0FFFE0
67FFCC
F0001E
F0001E
F0001E
F0001E
F0001E
F0001E
F0001E
F0001E
F0001E
F0001E
F0001E
F0001E
F0001E
F0001E
E0000E
400004
000000
000000
400004
E0000E
F0001E
F0001E
F0001E
F0001E
F0001E
F0001E
F0001E
F0001E
F0001E
F0001E
F0001E
F0001E
F0001E
F0001E
67FFCC
0FFFE0
1FFFF0
0FFFE0
ENDCHAR
STARTCHAR 00F7
ENCODING 247
SWIDTH 550 0
DWIDTH 33 0
BBX 25 22 4 1
BITMAP
000C0000
001E0000
001E0000
001E0000
000C0000
00000000
00000000
00000000
00000000
3FFFFF00
7FFFFF80
FFFFFF80
7FFFFF00
00000000
00000000
00000000
00000000
000C0000
001C0000
001E0000
001E0000
000C0000
ENDCHAR
STARTCHAR 00F9
ENCODING 249
SWIDTH 516 0
DWIDTH 31 0
BBX 23 42 4 0
BITMAP
400004
E0000E
F0001E
F0001E
F0001E
F0001E
F0001E
F0001E
F0001E
F0001E
F0001E
F0001E
F0001E
F0001E
F0001E
F0001E
F0001E
F0001E
E0000E
400004
000000
000000
400004
E0000E
F0001E
F0001E
F0001E
F0001E
F0001E
F0001E
F0001E
F0001E
F0001E
F0001E
F0001E
F0001E
F0001E
F0001E
6FFFEC
1FFFF0
1FFFF0
0FFFE0
ENDCHAR
STARTCHAR 00FA
ENCODING 250
SWIDTH 516 0
DWIDTH 31 0
BBX 23 42 4 0
BITMAP
400004
E0000E
F0001E
F0001E
F0001E
F0001E
F0001E
F0001E
F0001E
F0001E
F0001E
F0001E
F0001E
F0001E
F0001E
F0001E
F0001E
F0001E
E0000E
400004
000000
000000
400004
E0000E
F0001E
F0001E
F0001E
F0001E
F0001E
F0001E
F0001E
F0001E
F0001E
F0001E
F0001E
F0001E
F0001E
F0001E
6FFFEC
1FFFF0
1FFFF0
0FFFE0
ENDCHAR
STARTCHAR 00FC
ENCODING 252
SWIDTH 516 0
DWIDTH 31 0
BBX 23 49 4 1
BITMAP
030180
0783C0
0783C0
0783C0
030180
000000
000000
400004
E0000E
F0001E
F0001E
F0001E
F0001E
F0001E
F0001E
F0001E
F0001E
F0001E
F0001E
F0001E
F0001E
F0001E
F0001E
F0001E
F0001E
E0000E
400004
000000
000000
400004
E0000E
F0001E
F0001E
F0001E
F0001E
F0001E
F0001E
F0001E
F0001E
F0001E
F0001E
F0001E
F0001E
F0001E
F0001E
67FFCC
0FFFE0
1FFFF0
0FFFE0
ENDCHAR
STARTCHAR 00FD
ENCODING 253
SWIDTH 516 0
DWIDTH 31 0
BBX 23 42 4 1
BITMAP
60000C
F0001E
F0001E
F0001E
F0001E
F0001E
F0001E
F0001E
F0001E
F0001E
F0001E
F0001E
F0001E
F0001E
F0001E
F0001E
F0001E
F0001E
E0000E
4FFFE4
1FFFF0
1FFFF0
0FFFEC
00001E
00001E
00001E
00001E
00001E
00001E
00001E
00001E
00001E
00001E
00001E
00001E
00001E
00001E
00001E
0FFFEC
1FFFF0
1FFFF0
0FFFE0
ENDCHAR
STARTCHAR 2000
ENCODING 8192
SWIDTH 433 0
DWIDTH 26 0
BBX 0 0 0 0
BITMAP
ENDCHAR
STARTCHAR 2001
ENCODING 8193
SWIDTH 866 0
DWIDTH 52 0
BBX 0 0 0 0
BITMAP
ENDCHAR
STARTCHAR 2002
ENCODING 8194
SWIDTH 433 0
DWIDTH 26 0
BBX 0 0 0 0
BITMAP
ENDCHAR
STARTCHAR 2003
ENCODING 8195
SWIDTH 866 0
DWIDTH 52 0
BBX 0 0 0 0
BITMAP
ENDCHAR
STARTCHAR 2004
ENCODING 8196
SWIDTH 283 0
DWIDTH 17 0
BBX 0 0 0 0
BITMAP
ENDCHAR
STARTCHAR 2005
ENCODING 8197
SWIDTH 216 0
DWIDTH 13 0
BBX 0 0 0 0
BITMAP
ENDCHAR
STARTCHAR 2006
ENCODING 8198
SWIDTH 150 0
DWIDTH 9 0
BBX 0 0 0 0
BITMAP
ENDCHAR
STARTCHAR 2007
ENCODING 8199
SWIDTH 150 0
DWIDTH 9 0
BBX 0 0 0 0
BITMAP
ENDCHAR
STARTCHAR 2008
ENCODING 8200
SWIDTH 100 0
DWIDTH 6 0
BBX 0 0 0 0
BITMAP
ENDCHAR
STARTCHAR 2009
ENCODING 8201
SWIDTH 166 0
DWIDTH 10 0
BBX 0 0 0 0
BITMAP
ENDCHAR
STARTCHAR 200A
ENCODING 8202
SWIDTH 50 0
DWIDTH 3 0
BBX 0 0 0 0
BITMAP
ENDCHAR
STARTCHAR 2010
ENCODING 8208
SWIDTH 400 0
DWIDTH 24 0
BBX 16 4 4 19
BITMAP
7FFE
FFFF
FFFF
7FFE
ENDCHAR
STARTCHAR 2011
ENCODING 8209
SWIDTH 400 0
DWIDTH 24 0
BBX 16 4 4 19
BITMAP
7FFE
FFFF
FFFF
7FFE
ENDCHAR
STARTCHAR 2012
ENCODING 8210
SWIDTH 400 0
DWIDTH 24 0
BBX 16 4 4 19
BITMAP
7FFE
FFFF
FFFF
7FFE
ENDCHAR
STARTCHAR 2013
ENCODING 8211
SWIDTH 616 0
DWIDTH 37 0
BBX 29 4 4 19
BITMAP
3FFFFFE0
7FFFFFF8
FFFFFFF8
3FFFFFE0
ENDCHAR
STARTCHAR 2014
ENCODING 8212
SWIDTH 1116 0
DWIDTH 67 0
BBX 58 4 5 19
BITMAP
0FFFFFFFFFFFF800
7FFFFFFFFFFFFF00
FFFFFFFFFFFFFFC0
1FFFFFFFFFFFFC00
ENDCHAR
STARTCHAR 2018
ENCODING 8216
SWIDTH 266 0
DWIDTH 16 0
BBX 9 13 4 -8
BITMAP
0100
0700
0F80
0F00
1F00
1E00
3E00
3C00
7800
F800
F000
F000
E000
ENDCHAR
STARTCHAR 201C
ENCODING 8220
SWIDTH 283 0
DWIDTH 17 0
BBX 10 5 4 37
BITMAP
6180
F3C0
F3C0
E380
4100
ENDCHAR
STARTCHAR 202F
ENCODING 8239
SWIDTH 166 0
DWIDTH 10 0
BBX 0 0 0 0
BITMAP
ENDCHAR
STARTCHAR 205F
ENCODING 8287
SWIDTH 216 0
DWIDTH 13 0
BBX 0 0 0 0
BITMAP
ENDCHAR
STARTCHAR 20AC
ENCODING 8364
SWIDTH 466 0
DWIDTH 28 0
BBX 20 42 4 0
BITMAP
0FFFE0
1FFFF0
1FFFE0
6FFFC0
F00000
F00000
F00000
F00000
F00000
F00000
F0FF00
F1FF80
F3FF80
F1FF00
F00000
F00000
F00000
F00000
E00000
4FFFE0
1FFFF0
1FFFE0
6FFFC0
E00000
F00000
F00000
F00000
F00000
F1FF00
F3FF80
F1FF80
F0FF00
F00000
F00000
F00000
F00000
F00000
F00000
6FFFC0
1FFFE0
1FFFF0
0FFFE0
ENDCHAR
STARTCHAR 25FC
ENCODING 9724
SWIDTH 700 0
DWIDTH 42 0
BBX 42 42 0 1
BITMAP
FFFFFFFFFFC0
FFFFFFFFFFC0
FFFFFFFFFFC0
FFFFFFFFFFC0
FFFFFFFFFFC0
FFFFFFFFFFC0
FFFFFFFFFFC0
FFFFFFFFFFC0
FFFFFFFFFFC0
FFFFFFFFFFC0
FFFFFFFFFFC0
FFFFFFFFFFC0
FFFFFFFFFFC0
FFFFFFFFFFC0
FFFFFFFFFFC0
FFFFFFFFFFC0
FFFFFFFFFFC0
FFFFFFFFFFC0
FFFFFFFFFFC0
FFFFFFFFFFC0
FFFFFFFFFFC0
FFFFFFFFFFC0
FFFFFFFFFFC0
FFFFFFFFFFC0
FFFFFFFFFFC0
FFFFFFFFFFC0
FFFFFFFFFFC0
FFFFFFFFFFC0
FFFFFFFFFFC0
FFFFFFFFFFC0
FFFFFFFFFFC0
FFFFFFFFFFC0
FFFFFFFFFFC0
FFFFFFFFFFC0
FFFFFFFFFFC0
FFFFFFFFFFC0
FFFFFFFFFFC0
FFFFFFFFFFC0
FFFFFFFFFFC0
FFFFFFFFFFC0
FFFFFFFFFFC0
FFFFFFFFFFC0
ENDCHAR
ENDFONT
